<svg width="70" height="70" viewBox="0 0 70 70" fill="none" xmlns="http://www.w3.org/2000/svg">
<path d="M35.1636 14.9862C38.6613 14.9862 41.4967 12.1508 41.4967 8.65309C41.4967 5.15542 38.6613 2.32001 35.1636 2.32001C31.666 2.32001 28.8306 5.15542 28.8306 8.65309C28.8306 12.1508 31.666 14.9862 35.1636 14.9862Z" fill="white"/>
<path d="M28.8293 66.92H41.497L41.4954 28.9192L47.8308 35.2538L50.3396 32.7458L51.9188 34.3251C52.5375 34.9438 53.3484 35.2531 54.1586 35.2531C54.9687 35.2531 55.7796 34.9445 56.3968 34.3251C57.6348 33.0894 57.6348 31.0837 56.3968 29.8472L43.7321 17.181C43.115 16.5639 42.3071 16.2561 41.4992 16.2546L41.4977 16.2538L41.4962 16.2546C41.4916 16.2546 41.4856 16.2538 41.4802 16.2538H28.8437C28.8399 16.2538 28.8354 16.2546 28.8308 16.2546V16.2538L28.83 16.2546C28.0199 16.2546 27.2105 16.5632 26.5934 17.181L13.928 29.8472C12.6907 31.0837 12.6907 33.0894 13.928 34.3251C14.5458 34.9438 15.3568 35.2531 16.1662 35.2531C16.9763 35.2531 17.788 34.9445 18.4051 34.3251L19.9867 32.7436L22.4977 35.2538L28.8293 28.9223V66.92Z" fill="white"/>
</svg>
