<svg width="70" height="70" viewBox="0 0 70 70" fill="none" xmlns="http://www.w3.org/2000/svg">
<g clip-path="url(#clip0)">
<path fill-rule="evenodd" clip-rule="evenodd" d="M51.875 42.5886C50.633 42.5886 49.625 43.5966 49.625 44.8386C49.625 46.0784 50.633 47.0886 51.875 47.0886C53.1148 47.0886 54.125 46.0784 54.125 44.8386C54.125 43.5966 53.1148 42.5886 51.875 42.5886Z" fill="white"/>
<path fill-rule="evenodd" clip-rule="evenodd" d="M51.875 51.5886C48.1535 51.5886 45.125 48.5601 45.125 44.8386C45.125 41.1171 48.1535 38.0886 51.875 38.0886C55.5965 38.0886 58.625 41.1171 58.625 44.8386C58.625 48.5601 55.5965 51.5886 51.875 51.5886ZM34.1743 43.7136H33.4452L28.5088 33.8406C31.931 31.9529 35.5625 31.3836 38.6855 31.3836C40.4878 31.3836 42.0987 31.5726 43.3452 31.7886C37.3715 35.7959 34.9167 41.5604 34.1743 43.7136ZM28.1825 43.7136C27.8787 40.9709 26.4748 38.5634 24.4272 36.9254C25.1292 36.2279 25.856 35.6046 26.6052 35.0624L30.9275 43.7136H28.1825ZM18.125 51.5886C14.4035 51.5886 11.375 48.5601 11.375 44.8386C11.375 41.1171 14.4035 38.0886 18.125 38.0886C21.8465 38.0886 24.875 41.1171 24.875 44.8386C24.875 48.5601 21.8465 51.5886 18.125 51.5886ZM51.875 34.7136C50.7185 34.7136 49.6115 34.9184 48.5743 35.2761L45.1318 22.2171C45.1903 21.6524 45.6695 21.2136 46.25 21.2136C48.1107 21.2136 49.625 19.6994 49.625 17.8386C49.625 15.9779 48.1107 14.4636 46.25 14.4636H41.75C41.129 14.4636 40.625 14.9676 40.625 15.5886C40.625 16.2096 41.129 16.7136 41.75 16.7136H46.25C46.8688 16.7136 47.375 17.2176 47.375 17.8386C47.375 18.4574 46.8688 18.9636 46.25 18.9636C44.3893 18.9636 42.875 20.4779 42.875 22.3386C42.875 22.4354 42.8862 22.5321 42.9132 22.6244L44.7965 29.7771C43.3587 29.4711 41.21 29.1336 38.6855 29.1336C35.2475 29.1336 31.2583 29.7636 27.4918 31.8066L24.4452 25.7136H27.125C27.746 25.7136 28.25 25.2096 28.25 24.5886C28.25 23.9676 27.746 23.4636 27.125 23.4636H20.375C19.754 23.4636 19.25 23.9676 19.25 24.5886C19.25 25.2096 19.754 25.7136 20.375 25.7136H21.9275L25.5658 32.9834C24.4858 33.7394 23.4417 34.6484 22.4473 35.6969C21.1333 35.0714 19.6707 34.7136 18.125 34.7136C12.5428 34.7136 8 39.2564 8 44.8386C8 50.4209 12.5428 54.9636 18.125 54.9636C23.3247 54.9636 27.6223 51.0171 28.1825 45.9636H35C35.5107 45.9636 35.9562 45.6194 36.0868 45.1244C36.1092 45.0434 38.231 37.3866 45.6515 33.0126L46.5088 36.2661C43.6558 38.0594 41.75 41.2274 41.75 44.8386C41.75 50.4209 46.2928 54.9636 51.875 54.9636C57.4572 54.9636 62 50.4209 62 44.8386C62 39.2564 57.4572 34.7136 51.875 34.7136Z" fill="white"/>
<path fill-rule="evenodd" clip-rule="evenodd" d="M18.125 42.5886C16.883 42.5886 15.875 43.5966 15.875 44.8386C15.875 46.0784 16.883 47.0886 18.125 47.0886C19.3647 47.0886 20.375 46.0784 20.375 44.8386C20.375 43.5966 19.3647 42.5886 18.125 42.5886Z" fill="white"/>
</g>
<defs>
<clipPath id="clip0">
<rect width="54" height="42.75" fill="white" transform="translate(8 14)"/>
</clipPath>
</defs>
</svg>
