<svg width="70" height="70" viewBox="0 0 70 70" fill="none" xmlns="http://www.w3.org/2000/svg">
<path d="M40.812 53.1634C40.5155 53.1634 40.216 53.1494 39.9165 53.1208C38.5409 52.9913 37.1953 52.5541 36.126 51.8908C35.6337 51.5844 35.2482 51.2627 34.9865 50.9442C34.7248 51.2621 34.3387 51.5844 33.8464 51.8908C32.7777 52.5547 31.4314 52.9919 30.0558 53.1208C29.7563 53.1494 29.4574 53.1634 29.1604 53.1634C28.7822 53.1634 28.4064 53.1396 28.0337 53.0947C29.6545 54.6134 30.9373 56.0362 34.9859 56.0362C39.0338 56.0362 40.316 54.6134 41.9374 53.0947C41.5665 53.1396 41.1908 53.1634 40.812 53.1634Z" fill="white"/>
<path d="M61.932 39.8062C59.6158 41.4022 57.0605 40.019 56.7055 37.8351L56.6744 37.6569C56.1943 34.4461 54.9146 31.3283 52.721 28.7133C55.8436 22.4022 54.3857 14.0665 52.5191 13.1691V13.1697C50.6452 12.1368 43.2605 15.9258 39.9805 22.0672C38.4342 21.8289 36.7707 21.7024 34.9865 21.7024C33.2016 21.7024 31.5388 21.8289 29.9918 22.0672C26.7124 15.9252 19.3278 12.1361 17.4551 13.1691V13.1685C15.5873 14.0659 14.13 22.4016 17.2526 28.7127C15.0578 31.3277 13.7786 34.4455 13.2991 37.6563L13.2686 37.8345C12.913 40.0184 10.3583 41.4016 8.04155 39.8056C7.54257 42.0583 11.6296 45.0137 15.3506 44.7195C14.9425 46.7313 12.6422 47.0767 10.5798 46.2644C10.5804 47.5515 11.5314 49.4935 16.501 49.4935C22.4138 49.4935 25.0642 50.6894 26.8381 52.0562C27.8598 52.3493 28.9127 52.4471 29.9833 52.3462C31.6797 52.1845 32.874 51.5765 33.4346 51.2287C34.2648 50.7131 34.565 50.2517 34.5955 50.0747C34.5955 50.065 34.5949 50.0559 34.5949 50.0462H34.5985V46.687C33.7945 46.5848 33.492 46.1586 33.0003 45.6679C32.4361 45.1049 32.0835 44.4118 31.942 43.6847C32.153 43.3168 33.2254 44.1492 33.8854 44.7499C33.886 44.7486 33.8873 44.7474 33.8879 44.7474C34.1355 44.9304 34.4887 45.1274 34.9877 45.1274C35.4867 45.1274 35.8344 44.9067 36.0875 44.7474C36.0881 44.7474 36.0894 44.7486 36.0906 44.7499C36.7494 44.1492 37.823 43.3168 38.0334 43.6847C37.8925 44.4112 37.5393 45.1049 36.9757 45.6679C36.484 46.1574 36.1809 46.5848 35.3799 46.687V50.0462H35.3811C35.3811 50.0559 35.3799 50.065 35.3799 50.0747C35.411 50.2517 35.7112 50.7137 36.5408 51.2287C37.1013 51.5765 38.2963 52.1845 39.9921 52.3462C41.0639 52.4459 42.1155 52.3499 43.1373 52.0562C44.9106 50.6882 47.561 49.4935 53.4744 49.4935C58.4434 49.4935 59.3938 47.5521 59.395 46.2644C57.3332 47.0767 55.0329 46.7313 54.6242 44.7195C58.3446 45.0144 62.4316 42.0589 61.932 39.8062ZM33.1016 37.4976C31.6321 40.1613 28.1587 41.5281 24.9306 41.2192C21.6946 40.9091 19.6212 39.0031 18.6958 36.0986C19.0466 32.4555 23.125 31.7314 26.3611 32.0408C28.4454 32.2403 30.262 33.2331 31.5375 34.6905C30.7268 31.3587 29.2988 29.0367 27.2736 27.7696C26.1604 27.0729 24.8568 26.6983 23.3995 26.6564C21.999 26.6163 20.449 26.8807 18.7928 27.4419C18.7885 27.4462 18.783 27.4504 18.7794 27.4547C16.7383 21.8039 17.0427 16.0334 18.4164 15.3792C19.695 14.6612 24.1681 18.6016 26.8625 23.0692C24.5915 23.7106 22.6285 24.6251 20.9528 25.7456C21.8141 25.5954 22.6425 25.531 23.4319 25.5541C25.0892 25.6021 26.5801 26.0332 27.8629 26.8352C30.7336 28.6306 32.5154 32.2159 33.1601 37.4897L33.1016 37.4976ZM43.5844 32.067C46.8205 31.7581 50.8989 32.4823 51.2491 36.126C50.3243 39.0298 48.2509 40.9371 45.0155 41.246C41.7861 41.5548 38.3134 40.1868 36.8433 37.5244L36.786 37.5171C37.4307 32.2433 39.2132 28.6579 42.082 26.8625C43.3654 26.0599 44.8563 25.6289 46.5136 25.5815C47.331 25.5577 48.1905 25.6277 49.083 25.7894C47.3945 24.6494 45.4102 23.7204 43.1117 23.071C45.8054 18.6034 50.2792 14.663 51.5571 15.381C52.9321 16.0352 53.2358 21.8058 51.1942 27.4565C51.1875 27.4504 51.1814 27.4444 51.1753 27.4383L51.1625 27.4729C49.5026 26.9093 47.9496 26.6436 46.5466 26.6844C45.0887 26.7263 43.7857 27.1008 42.6725 27.7976C40.6479 29.0641 39.2187 31.386 38.4086 34.7179C39.6835 33.2587 41.5001 32.2664 43.5844 32.067Z" fill="white"/>
<path d="M25.0059 36.6209C25.0059 37.7056 25.3371 38.7149 25.9044 39.5509C26.4717 38.7149 26.8035 37.7056 26.8035 36.6209C26.8035 35.5338 26.4723 34.5258 25.9044 33.6891C25.3371 34.5251 25.0059 35.5338 25.0059 36.6209Z" fill="white"/>
<path d="M44.9405 36.6464C44.9405 37.7317 44.608 38.7398 44.0414 39.577C43.4741 38.7398 43.1416 37.7317 43.1416 36.6464C43.1416 35.5605 43.4741 34.5519 44.0414 33.7153C44.608 34.5513 44.9405 35.5605 44.9405 36.6464Z" fill="white"/>
</svg>
