<svg width="70" height="70" viewBox="0 0 70 70" fill="none" xmlns="http://www.w3.org/2000/svg">
<path fill-rule="evenodd" clip-rule="evenodd" d="M20.627 41.006C19.336 38.563 16.769 37 14 37C10.222 37 7.059 39.819 6.573 43.512C4.126 43.317 2 45.266 2 47.75C2 49.927 3.19 50.969 4.188 51.459C5.236 51.974 6.289 52 6.488 52H21L21.064 51.995C21.113 51.988 26 51.298 26 46.5C26 43.51 23.601 41.069 20.627 41.006Z" fill="white"/>
<path fill-rule="evenodd" clip-rule="evenodd" d="M63.627 18.9734C62.336 16.5304 59.769 14.9674 57 14.9674C53.222 14.9674 50.059 17.7864 49.573 21.4794C47.126 21.2844 45 23.2334 45 25.7174C45 27.8944 46.19 28.9364 47.188 29.4264C48.236 29.9414 49.289 29.9674 49.488 29.9674H64L64.064 29.9624C64.113 29.9554 69 29.2654 69 24.4674C69 21.4774 66.601 19.0364 63.627 18.9734Z" fill="white"/>
<path fill-rule="evenodd" clip-rule="evenodd" d="M27.3809 28.5714V39.3095C27.3809 41.668 29.0599 43.638 31.2856 44.0929V55.9048H39.0951V44.0929C41.3209 43.638 42.9999 41.668 42.9999 39.3095V28.5714H27.3809Z" fill="white"/>
<path fill-rule="evenodd" clip-rule="evenodd" d="M35.1901 26.6191C38.4194 26.6191 41.0473 23.9912 41.0473 20.7619C41.0473 17.5327 38.4194 14.9048 35.1901 14.9048C31.9609 14.9048 29.333 17.5327 29.333 20.7619C29.333 23.9912 31.9609 26.6191 35.1901 26.6191Z" fill="white"/>
</svg>
