<svg width="70" height="70" viewBox="0 0 70 70" fill="none" xmlns="http://www.w3.org/2000/svg">
<g clip-path="url(#clip0)">
<path fill-rule="evenodd" clip-rule="evenodd" d="M30.9024 27.463C30.7431 27.6239 30.5351 27.7019 30.3271 27.7019C30.1208 27.7019 29.9128 27.6239 29.7535 27.463C29.4383 27.1477 29.4383 26.6326 29.7535 26.3157C29.9128 26.1565 30.1208 26.0752 30.3271 26.0752C30.5351 26.0752 30.7431 26.1565 30.9024 26.3157C31.2209 26.6326 31.2209 27.1477 30.9024 27.463ZM29.1799 22.2922C29.3391 22.1346 29.5471 22.055 29.7551 22.055C29.9615 22.055 30.1695 22.1346 30.3271 22.2922C30.6456 22.6124 30.6456 23.1259 30.3271 23.4427C30.1695 23.602 29.9615 23.6816 29.7551 23.6816C29.5471 23.6816 29.3391 23.602 29.1799 23.4427C28.863 23.1259 28.863 22.6124 29.1799 22.2922ZM27.4558 30.9112C27.2965 31.0721 27.0885 31.1517 26.8821 31.1517C26.6725 31.1517 26.4645 31.0721 26.3069 30.9112C25.99 30.5944 25.99 30.0792 26.3069 29.7624C26.4645 29.6031 26.6725 29.5235 26.8821 29.5235C27.0885 29.5235 27.2965 29.6031 27.4558 29.7624C27.7743 30.0792 27.7743 30.5944 27.4558 30.9112ZM25.7333 25.7405C25.8925 25.5829 26.1005 25.5016 26.3085 25.5016C26.5165 25.5016 26.7245 25.5829 26.8805 25.7405C27.2006 26.0574 27.2006 26.5725 26.8805 26.8894C26.7245 27.0486 26.5165 27.1282 26.3085 27.1282C26.1005 27.1282 25.8925 27.0486 25.7333 26.8894C25.4148 26.5725 25.4148 26.0574 25.7333 25.7405ZM25.158 21.7186C25.3173 21.561 25.5253 21.4814 25.7333 21.4814C25.9413 21.4814 26.1493 21.561 26.3069 21.7186C26.6238 22.0355 26.6238 22.5506 26.3069 22.8675C26.1493 23.0284 25.9413 23.1064 25.7333 23.1064C25.5253 23.1064 25.3173 23.0284 25.158 22.8675C24.8395 22.5506 24.8395 22.0355 25.158 21.7186ZM23.4339 30.3376C23.2763 30.4952 23.0683 30.5749 22.8619 30.5749C22.6539 30.5749 22.4459 30.4952 22.2866 30.3376C21.9698 30.0191 21.9698 29.5056 22.2866 29.1887C22.4459 29.0295 22.6539 28.9499 22.8619 28.9499C23.0683 28.9499 23.2763 29.0295 23.4339 29.1887C23.7556 29.5056 23.7556 30.0191 23.4339 30.3376ZM21.7114 25.1652C21.8706 25.006 22.0786 24.9264 22.2866 24.9264C22.493 24.9264 22.701 25.006 22.8603 25.1652C23.1788 25.4821 23.1788 25.9972 22.8603 26.3157C22.701 26.475 22.493 26.553 22.2866 26.553C22.0786 26.553 21.8706 26.475 21.7114 26.3157C21.3945 25.9972 21.3945 25.4821 21.7114 25.1652ZM32.6428 18.8619C30.8016 17.0207 28.356 16.0084 25.7495 16.0084C23.1463 16.0084 20.6974 17.0207 18.8563 18.8619C17.0135 20.7062 15.9979 23.1551 15.9995 25.76C15.9995 28.3649 17.0135 30.8121 18.8563 32.6516L24.0091 37.8045L37.7973 24.018L32.6428 18.8619Z" fill="white"/>
<path fill-rule="evenodd" clip-rule="evenodd" d="M49.2896 45.8503C49.1304 46.0095 48.9224 46.0891 48.716 46.0891C48.508 46.0891 48.3 46.0095 48.1391 45.8503C47.8223 45.5334 47.8223 45.0183 48.1391 44.7014C48.3 44.5421 48.508 44.4641 48.716 44.4641C48.9224 44.4641 49.1304 44.5421 49.2896 44.7014C49.6049 45.0183 49.6049 45.5334 49.2896 45.8503ZM47.5671 40.6795C47.7248 40.5219 47.9311 40.4406 48.1391 40.4406C48.3471 40.4406 48.5551 40.5219 48.7144 40.6795C49.0313 40.9964 49.0313 41.5099 48.7144 41.8268C48.5551 41.9876 48.3471 42.0673 48.1391 42.0673C47.9311 42.0673 47.7248 41.9876 47.5671 41.8268C47.2486 41.5099 47.2486 40.9964 47.5671 40.6795ZM45.8398 49.2969C45.6805 49.4561 45.4741 49.5358 45.2661 49.5358C45.0598 49.5358 44.8518 49.4561 44.6925 49.2969C44.374 48.9816 44.374 48.4665 44.6925 48.148C44.8518 47.9888 45.0598 47.9108 45.2661 47.9108C45.4741 47.9108 45.6805 47.9888 45.8398 48.148C46.1583 48.4665 46.1583 48.9816 45.8398 49.2969ZM44.1156 44.1261C44.2749 43.9685 44.4829 43.8873 44.6925 43.8873C44.9005 43.8873 45.1069 43.9685 45.2645 44.1261C45.583 44.4446 45.583 44.9581 45.2645 45.2766C45.1069 45.4343 44.9005 45.5139 44.6925 45.5139C44.4829 45.5139 44.2749 45.4343 44.1156 45.2766C43.7988 44.9581 43.7988 44.4446 44.1156 44.1261ZM43.542 40.1043C43.7013 39.945 43.9109 39.8654 44.1156 39.8654C44.3253 39.8654 44.5316 39.945 44.6925 40.1043C45.0094 40.4228 45.0094 40.9363 44.6925 41.2531C44.5316 41.4124 44.3253 41.4904 44.1156 41.4904C43.9109 41.4904 43.7013 41.4124 43.542 41.2531C43.2268 40.9363 43.2268 40.4228 43.542 40.1043ZM41.8179 48.7249C41.6603 48.8825 41.4539 48.9605 41.2443 48.9605C41.0379 48.9605 40.8283 48.8825 40.669 48.7249C40.3521 48.4048 40.3521 47.8913 40.669 47.5744C40.8283 47.4168 41.0379 47.3371 41.2443 47.3371C41.4539 47.3371 41.6603 47.4168 41.8179 47.5744C42.138 47.8913 42.138 48.4048 41.8179 48.7249ZM40.0954 43.5525C40.2546 43.3933 40.461 43.3136 40.669 43.3136C40.877 43.3136 41.085 43.3933 41.2459 43.5525C41.5611 43.8694 41.5611 44.3845 41.2459 44.7014C41.085 44.8606 40.877 44.9386 40.669 44.9386C40.461 44.9386 40.2546 44.8606 40.0954 44.7014C39.7801 44.3845 39.7801 43.8694 40.0954 43.5525ZM52.1431 38.3655L46.9903 33.2126L33.2021 46.9991L38.3566 52.1536C40.1945 53.9948 42.6434 55.0088 45.2483 55.0088C47.8515 55.0088 50.3004 53.9948 52.1431 52.152C53.9859 50.3125 54.9999 47.8653 54.9999 45.2604C54.9999 42.6539 53.9859 40.205 52.1431 38.3655Z" fill="white"/>
<path fill-rule="evenodd" clip-rule="evenodd" d="M38.7814 25.3347L24.9868 39.126L31.8817 46.0209L45.6731 32.2312L38.7814 25.3347Z" fill="white"/>
</g>
<defs>
<clipPath id="clip0">
<rect width="39" height="39" fill="white" transform="translate(16 16)"/>
</clipPath>
</defs>
</svg>
