<svg width="70" height="70" viewBox="0 0 70 70" fill="none" xmlns="http://www.w3.org/2000/svg">
<g clip-path="url(#clip0)">
<path fill-rule="evenodd" clip-rule="evenodd" d="M42.7769 59.1892L40.0566 59.6419C39.849 59.678 39.6414 59.6137 39.4874 59.4704C39.336 59.3285 39.2583 59.1235 39.2797 58.9146C39.2838 58.869 39.5972 55.7134 39.7927 52.681C38.3515 53.3963 35.9272 54.7156 35.9272 57.9717V62.9997H41.9545C41.7228 62.9997 41.5072 62.8792 41.3853 62.6823C41.2634 62.4854 41.2527 62.239 41.3558 62.0314L42.7769 59.1892Z" fill="white"/>
<path fill-rule="evenodd" clip-rule="evenodd" d="M64.2078 52.6812C64.3806 55.3693 64.6471 58.1553 64.7087 58.7848C64.7275 58.8478 64.7382 58.9134 64.7382 58.9817C64.7382 59.354 64.4342 59.6393 64.0618 59.6514C64.0243 59.6541 63.9841 59.6487 63.9439 59.642L61.2236 59.1893L62.6447 62.0302C62.7492 62.2391 62.7372 62.4855 62.6153 62.6824C62.4934 62.8793 62.2777 62.9999 62.046 62.9999H68.0733V57.9718C68.0733 54.7171 65.649 53.3964 64.2078 52.6812Z" fill="white"/>
<path fill-rule="evenodd" clip-rule="evenodd" d="M44.2633 44.8476L44.633 44.6628V43.168C45.2692 43.2363 45.9416 43.3006 46.6421 43.3569V44.2489C46.6421 44.9882 47.2421 45.5883 47.9815 45.5883H49.3209C50.0616 45.5883 50.6603 44.9882 50.6603 44.2489V43.5645C51.1023 43.5738 51.5483 43.5792 51.9997 43.5792C52.4524 43.5792 52.8984 43.5738 53.3391 43.5645V44.2489C53.3391 44.9882 53.9391 45.5883 54.6785 45.5883H56.0179C56.7585 45.5883 57.3572 44.9882 57.3572 44.2489V43.3569C58.0591 43.3006 58.7315 43.2363 59.3663 43.168V44.6628L59.7373 44.8476C60.0334 44.9963 60.1485 45.6111 59.9985 46.2486C59.8512 46.8714 59.4226 47.5974 58.6966 47.5974H58.0269V48.2671C58.0269 51.7495 53.7985 54.2944 51.9997 54.2944C50.2022 54.2944 45.9724 51.7495 45.9724 48.2671V47.5974H45.3027C44.5781 47.5974 44.1495 46.8714 44.0021 46.2486C43.8521 45.6111 43.9673 44.9963 44.2633 44.8476ZM38.4611 42.2237C38.4946 42.2318 40.3804 42.643 43.2936 43.0113V43.902C42.6788 44.4525 42.4391 45.4584 42.6989 46.5553C42.9802 47.7447 43.7195 48.5872 44.6625 48.8497C44.7522 49.7418 45.0522 50.5588 45.4755 51.2981C44.9143 51.3463 44.3651 51.4227 43.8495 51.5138C45.2036 54.7297 48.8119 57.5732 51.9997 59.4242C55.1888 57.5732 58.7971 54.7297 60.1512 51.5138C59.6356 51.4227 59.0864 51.3463 58.5239 51.2981C58.9484 50.5588 59.2485 49.7418 59.3369 48.8497C60.2798 48.5872 61.0205 47.7447 61.3018 46.5553C61.5616 45.4584 61.3218 44.4525 60.7057 43.902V43.0113C63.6202 42.643 65.5061 42.2318 65.5396 42.2237C65.8102 42.1635 66.0164 41.9411 66.0566 41.6666C66.0968 41.392 65.9628 41.1201 65.7191 40.9848L61.1491 38.4466C60.7446 38.5886 55.9951 40.2307 51.9997 40.2307C48.1462 40.2307 43.6566 38.6288 42.9748 38.377L38.2816 40.9848C38.0378 41.1201 37.9039 41.392 37.9441 41.6666C37.9843 41.9411 38.1892 42.1635 38.4611 42.2237Z" fill="white"/>
<path fill-rule="evenodd" clip-rule="evenodd" d="M51.3303 52.2849H52.6697C53.0394 52.2849 53.3394 51.9848 53.3394 51.6152C53.3394 51.2455 53.0394 50.9455 52.6697 50.9455H51.3303C50.9607 50.9455 50.6606 51.2455 50.6606 51.6152C50.6606 51.9848 50.9607 52.2849 51.3303 52.2849Z" fill="white"/>
<path fill-rule="evenodd" clip-rule="evenodd" d="M59.7502 37.4907L56.6173 31.225C56.5316 31.0536 56.3762 30.9263 56.1901 30.8781C56.0052 30.8286 55.807 30.8607 55.6476 30.9679L52.0004 33.3989L48.3533 30.9679C48.1939 30.8607 47.9943 30.8272 47.8108 30.8781C47.6246 30.9263 47.4693 31.0536 47.3836 31.225L44.2896 37.413C45.8633 37.93 49.1716 38.8904 52.0004 38.8904C54.8105 38.8904 58.1349 37.9876 59.7502 37.4907Z" fill="white"/>
<path fill-rule="evenodd" clip-rule="evenodd" d="M59.4983 57.9145C59.647 57.7122 59.8974 57.6104 60.1466 57.6519L63.3049 58.1783C63.1374 56.3996 62.7785 52.3171 62.7222 49.6062H62.015C61.6105 53.9619 57.3445 57.7403 53.3545 60.1646C55.1962 61.1143 56.7365 61.6607 57.3579 61.6607H57.3646H57.3713H60.9623L59.438 58.6123C59.3255 58.3873 59.3483 58.1167 59.4983 57.9145Z" fill="white"/>
<path fill-rule="evenodd" clip-rule="evenodd" d="M41.9861 49.6061H41.2776C41.2213 52.317 40.8624 56.3995 40.6963 58.1782L43.8532 57.6518C44.1037 57.6103 44.3528 57.7121 44.5015 57.9143C44.6529 58.1166 44.6756 58.3871 44.5631 58.6121L43.0389 61.6606H50.5984H53.4018C48.9161 59.5162 42.4871 55.0011 41.9861 49.6061Z" fill="white"/>
</g>
<g clip-path="url(#clip1)">
<path fill-rule="evenodd" clip-rule="evenodd" d="M30.183 29.4675L26.0644 28.2942C25.6211 31.1632 21.6551 33.1187 18.0722 33.1187C14.4907 33.1187 10.5248 31.1632 10.0814 28.2942L5.91054 29.4836C3.57196 30.3609 1.99951 32.6285 1.99951 35.1278V39.146H34.145V35.1278C34.145 32.6285 32.5739 30.3609 30.183 29.4675Z" fill="white"/>
<path fill-rule="evenodd" clip-rule="evenodd" d="M10.1164 19.2494C10.9615 19.7999 11.8616 20.0932 12.8072 20.0932C14.2377 20.0932 15.5101 19.4718 16.5321 18.9722C17.1495 18.6695 17.7335 18.3855 18.0724 18.3855C18.4046 18.3855 18.9832 18.6681 19.5966 18.9681C20.6226 19.4691 21.899 20.0932 23.3362 20.0932C24.2832 20.0932 25.1846 19.7999 26.0297 19.2494C26.1503 19.5227 26.1744 19.9472 26.0712 20.3852C25.9239 21.0067 25.4953 21.734 24.7694 21.734H24.0997V22.4037C24.0997 25.8861 19.8712 28.431 18.0724 28.431C16.2749 28.431 12.0451 25.8861 12.0451 22.4037V21.734H11.3754C10.6508 21.734 10.2222 21.0067 10.0749 20.3852C9.97173 19.9472 9.99584 19.5227 10.1164 19.2494ZM15.3936 16.3764C15.3936 16.7461 15.0936 17.0461 14.7239 17.0461H13.3845C13.0148 17.0461 12.7148 16.7461 12.7148 16.3764C12.7148 16.0067 13.0148 15.7067 13.3845 15.7067H14.7239C15.0936 15.7067 15.3936 16.0067 15.3936 16.3764ZM23.43 16.3764C23.43 16.7461 23.1299 17.0461 22.7603 17.0461H21.4209C21.0512 17.0461 20.7512 16.7461 20.7512 16.3764C20.7512 16.0067 21.0512 15.7067 21.4209 15.7067H22.7603C23.1299 15.7067 23.43 16.0067 23.43 16.3764ZM11.3607 10.5782C12.7054 9.09279 14.9637 8.34005 18.0724 8.34005C21.1717 8.34005 23.4246 9.08743 24.772 10.5634C25.5248 11.3885 25.861 12.3154 26.0083 13.0333C21.6526 13.0949 20.2851 13.6668 19.3676 14.0552C18.9055 14.2495 18.6269 14.3673 18.0724 14.3673C17.5607 14.3673 17.3759 14.2749 17.0089 14.0901C16.2026 13.6882 14.9985 13.0895 10.1351 13.0333C10.2798 12.318 10.6133 11.4059 11.3607 10.5782ZM8.77164 20.6919C9.05291 21.8813 9.79226 22.7238 10.7352 22.9863C10.8129 23.7565 11.0419 24.4731 11.3754 25.1307V27.7613C11.3754 29.8266 14.6315 31.7794 18.0724 31.7794C21.516 31.7794 24.7694 29.8266 24.7694 27.7613V25.1307C25.1029 24.4731 25.3332 23.7565 25.4109 22.9863C26.3539 22.7238 27.0932 21.8813 27.3745 20.6919C27.6249 19.6298 27.4093 18.6534 26.8374 18.0922L27.4455 14.433C27.4562 14.3258 27.6866 11.7877 25.7793 9.68078C24.1706 7.90207 21.5776 7.00066 18.0724 7.00066C14.5685 7.00066 11.9755 7.90207 10.3669 9.68078C8.45956 11.7877 8.68993 14.3258 8.70601 14.4772L9.30873 18.0922C8.73681 18.6534 8.52117 19.6298 8.77164 20.6919Z" fill="white"/>
<path fill-rule="evenodd" clip-rule="evenodd" d="M15.8679 24.8856L16.4238 24.3311C16.8015 23.952 17.3064 23.7417 17.8435 23.7417H18.303C18.8401 23.7417 19.345 23.952 19.7241 24.3311L20.2786 24.8856C20.4098 25.0168 20.5813 25.0811 20.7527 25.0811C20.9228 25.0811 21.0943 25.0168 21.2255 24.8856C21.4867 24.6244 21.4867 24.1998 21.2255 23.9386L20.671 23.3841C20.0388 22.7519 19.1977 22.4023 18.303 22.4023H17.8435C16.9488 22.4023 16.1077 22.7519 15.4755 23.3841L14.921 23.9386C14.6598 24.1998 14.6598 24.6244 14.921 24.8856C15.1822 25.1468 15.6068 25.1468 15.8679 24.8856Z" fill="white"/>
<path fill-rule="evenodd" clip-rule="evenodd" d="M13.385 10.3485C13.0154 10.3485 12.7153 10.6485 12.7153 11.0182C12.7153 11.3878 13.0154 11.6879 13.385 11.6879C13.7547 11.6879 14.0547 11.3878 14.0547 11.0182C14.0547 10.6485 13.7547 10.3485 13.385 10.3485Z" fill="white"/>
<path fill-rule="evenodd" clip-rule="evenodd" d="M22.761 11.6879C23.1307 11.6879 23.4307 11.3878 23.4307 11.0182C23.4307 10.6485 23.1307 10.3485 22.761 10.3485C22.3913 10.3485 22.0913 10.6485 22.0913 11.0182C22.0913 11.3878 22.3913 11.6879 22.761 11.6879Z" fill="white"/>
<path fill-rule="evenodd" clip-rule="evenodd" d="M16.0637 9.67879C15.6941 9.67879 15.394 9.97881 15.394 10.3485C15.394 10.7182 15.6941 11.0182 16.0637 11.0182C16.4334 11.0182 16.7334 10.7182 16.7334 10.3485C16.7334 9.97881 16.4334 9.67879 16.0637 9.67879Z" fill="white"/>
<path fill-rule="evenodd" clip-rule="evenodd" d="M20.0818 11.0182C20.4515 11.0182 20.7515 10.7182 20.7515 10.3485C20.7515 9.97881 20.4515 9.67879 20.0818 9.67879C19.7121 9.67879 19.4121 9.97881 19.4121 10.3485C19.4121 10.7182 19.7121 11.0182 20.0818 11.0182Z" fill="white"/>
<path fill-rule="evenodd" clip-rule="evenodd" d="M18.073 12.3576C18.4427 12.3576 18.7427 12.0575 18.7427 11.6879C18.7427 11.3182 18.4427 11.0182 18.073 11.0182C17.7033 11.0182 17.4033 11.3182 17.4033 11.6879C17.4033 12.0575 17.7033 12.3576 18.073 12.3576Z" fill="white"/>
</g>
<defs>
<clipPath id="clip0">
<rect width="32.1455" height="32.1455" fill="white" transform="translate(35.9272 30.8546)"/>
</clipPath>
<clipPath id="clip1">
<rect width="32.1455" height="32.1455" fill="white" transform="translate(2 7)"/>
</clipPath>
</defs>
</svg>
