<svg width="70" height="70" viewBox="0 0 70 70" fill="none" xmlns="http://www.w3.org/2000/svg">
<g clip-path="url(#clip0)">
<path fill-rule="evenodd" clip-rule="evenodd" d="M56.8399 35.5104C56.783 35.3857 55.408 32.3956 51.635 29.3376C50.8485 28.6996 49.6972 28.8206 49.0555 29.6089C48.4175 30.3917 48.5404 31.5486 49.325 32.1847C51.2115 33.7137 52.3592 35.1951 52.9587 36.1062C50.7605 38.7701 43.7352 46.3472 35.0012 46.3472C34.1909 46.3472 33.3604 46.2812 32.5299 46.1529C31.5307 45.9934 30.5939 46.6809 30.4362 47.6837C30.2822 48.6811 30.966 49.6216 31.9652 49.7756C32.9809 49.9332 34.002 50.0139 35.0012 50.0139C47.444 50.0139 56.288 37.8497 56.6565 37.3309C57.036 36.7992 57.1075 36.1062 56.8399 35.5104Z" fill="white"/>
<path fill-rule="evenodd" clip-rule="evenodd" d="M18.2682 43.1114C19.0474 43.7512 20.2005 43.6412 20.8477 42.8511C21.4875 42.0664 21.3702 40.9096 20.5855 40.2716C18.7449 38.7682 17.6265 37.3181 17.038 36.4234C19.2344 33.7632 26.2634 26.1806 35.001 26.1806C35.5639 26.1806 36.1395 26.2117 36.717 26.2741C37.7235 26.3877 38.6274 25.6599 38.7374 24.6516C38.8492 23.6469 38.1214 22.7431 37.1149 22.6312C36.409 22.5561 35.6959 22.5139 35.001 22.5139C22.5564 22.5139 13.7142 34.6781 13.3402 35.1987C12.9644 35.7249 12.8929 36.4142 13.1587 37.0082C13.2119 37.1329 14.5484 40.0772 18.2682 43.1114Z" fill="white"/>
<path fill-rule="evenodd" clip-rule="evenodd" d="M36.0696 42.909C40.1121 42.909 43.403 39.62 43.403 35.5757C43.403 34.8112 43.2856 34.076 43.0656 33.3812L33.877 42.5735C34.5681 42.7917 35.3051 42.909 36.0696 42.909Z" fill="white"/>
<path fill-rule="evenodd" clip-rule="evenodd" d="M28.7368 35.5757C28.7368 36.122 28.801 36.6518 28.9146 37.1652L37.6578 28.4202C37.1463 28.3083 36.6165 28.2423 36.0701 28.2423C32.0258 28.2423 28.7368 31.5313 28.7368 35.5757Z" fill="white"/>
<path fill-rule="evenodd" clip-rule="evenodd" d="M55.2606 16.0052C54.5896 15.3214 53.4328 15.2682 52.7013 15.9759C52.6921 15.985 52.6793 15.9924 52.6683 16.0052L16.9183 51.7552C16.2711 52.2667 16.1318 53.5684 16.9183 54.3475C16.9201 54.3494 16.9238 54.3512 16.9256 54.3549C17.6168 55.0369 18.8121 55.0369 19.5014 54.3549C19.5033 54.3512 19.5069 54.3494 19.5106 54.3475L55.2606 18.5975C55.9793 17.8715 55.9664 16.7129 55.2606 16.0052Z" fill="white"/>
</g>
<defs>
<clipPath id="clip0">
<rect width="44" height="40.3333" fill="white" transform="translate(13 15)"/>
</clipPath>
</defs>
</svg>
