<svg width="224" height="42" viewBox="0 0 224 42" fill="none" xmlns="http://www.w3.org/2000/svg">
<path d="M31.3062 27.532C33.5422 18.38 33.6982 17.444 33.6982 16.768C33.6982 14.012 31.9822 12.244 29.1222 12.244C23.8702 12.244 18.7222 17.704 14.6662 27.532L18.7222 12.244H18.5142L3.69423 14.792V15L6.50223 18.172L0.782227 41H11.3902L14.1982 30.392C15.4982 25.4 19.9702 18.692 21.8942 18.692C22.5182 18.692 22.7262 19.056 22.7262 19.628C22.7262 20.044 22.5182 20.772 22.3622 21.292L17.4222 41H28.0302L30.8382 30.392C32.1382 25.4 36.5582 18.692 38.5342 18.692C39.1582 18.692 39.3662 19.056 39.3662 19.628C39.3662 20.044 39.1582 20.772 39.0022 21.292L35.0502 34.292C34.7382 35.332 34.5822 36.32 34.5822 37.204C34.5822 39.7 35.8822 41.52 39.3142 41.52C44.0982 41.52 48.9342 37.464 51.1182 32.16L50.8582 31.9C49.2462 34.292 47.5822 36.06 46.4902 36.06C46.0222 36.06 45.7622 35.8 45.7622 35.28C45.7622 34.864 45.9182 34.136 46.1782 33.2L49.9222 19.732C50.2862 18.38 50.3902 17.444 50.3902 16.768C50.3902 14.012 48.6742 12.244 45.8142 12.244C40.5102 12.244 35.3622 17.652 31.3062 27.532Z" fill="#F2F2F2"/>
<path d="M65.1827 10.424C68.8227 10.424 70.9547 7.82399 70.9547 4.85999C70.9547 2.20799 68.9267 0.0239868 65.5987 0.0239868C61.9587 0.0239868 59.8267 2.57199 59.8267 5.53599C59.8267 8.13599 61.8547 10.424 65.1827 10.424ZM52.8587 34.292C52.5987 35.332 52.3907 36.32 52.3907 37.204C52.3907 39.7 53.6907 41.52 57.1227 41.52C61.9067 41.52 66.7427 37.464 68.9267 32.16L68.6667 31.9C67.0547 34.292 65.3907 36.06 64.2987 36.06C63.8307 36.06 63.5707 35.8 63.5707 35.28C63.5707 34.864 63.7267 34.136 63.9867 33.2L69.2907 12.244H69.0827L54.2627 14.792V15L57.0707 18.172L52.8587 34.292Z" fill="#F2F2F2"/>
<path d="M75.5093 18.172L69.7893 41H80.3973C83.1013 29.248 85.9093 21.552 90.6413 21.552C92.5133 21.552 93.0853 23.008 92.9813 24.36H93.0853C96.1013 23.268 98.7533 19.94 98.7533 16.56C98.7533 13.96 97.2453 12.244 94.7493 12.244C90.1733 12.244 87.1573 17.756 82.9453 30.236L87.7293 12.244H87.5213L72.7013 14.792V15L75.5093 18.172Z" fill="#F2F2F2"/>
<path d="M130.204 32.16L129.944 31.9C128.332 34.292 126.668 36.06 125.576 36.06C125.108 36.06 124.848 35.8 124.848 35.28C124.848 34.864 125.004 34.136 125.212 33.2L128.644 19.472L130.724 12.244H130.516L122.872 15C121.52 13.544 119.44 12.244 116.32 12.244C105.296 12.244 96.8196 23.58 96.8196 33.356C96.8196 38.348 99.4716 41.52 103.32 41.52C107.948 41.52 112.108 36.424 115.644 28.26C114.136 33.356 113.668 35.696 113.668 37.204C113.668 39.7 114.968 41.52 118.4 41.52C123.184 41.52 128.02 37.464 130.204 32.16ZM108.936 35.488C107.896 35.488 107.48 34.292 107.48 32.576C107.48 26.024 112.524 13.232 117.62 13.232C118.868 13.232 119.388 14.376 119.336 15.832C117.152 25.348 112.42 35.488 108.936 35.488Z" fill="#F2F2F2"/>
<path d="M149.601 12.868C151.941 12.868 151.421 18.848 150.069 22.124H153.501C155.737 21.448 157.297 19.472 157.297 17.34C157.297 13.856 154.229 12.244 150.121 12.244C140.033 12.244 131.661 21.76 131.661 31.068C131.661 37.568 135.665 41.52 141.437 41.52C146.741 41.52 151.265 37.984 153.605 32.16L153.345 31.848C151.421 34.604 149.237 35.956 146.741 35.956C143.829 35.956 142.321 33.72 142.321 29.3C142.321 21.864 146.117 12.868 149.601 12.868Z" fill="#F2F2F2"/>
<path d="M156.636 34.292C156.376 35.332 156.168 36.32 156.168 37.204C156.168 39.7 157.468 41.52 160.9 41.52C165.684 41.52 170.52 37.464 172.704 32.16L172.444 31.9C170.832 34.292 169.168 36.06 168.076 36.06C167.608 36.06 167.348 35.8 167.348 35.28C167.348 34.864 167.504 34.136 167.764 33.2L175.668 0.283987H175.46L160.64 2.83199V3.03999L163.708 6.36799L156.636 34.292Z" fill="#F2F2F2"/>
<path d="M198.542 31.744L198.23 31.432C196.306 34.344 193.29 35.644 190.534 35.644C187.102 35.644 184.866 33.044 184.866 28.416C184.866 27.948 184.866 27.48 184.918 26.96C193.706 26.284 200.986 23.944 200.986 18.276C200.986 14.896 197.97 12.244 192.874 12.244C182.526 12.244 174.414 21.344 174.414 30.808C174.414 37.36 178.782 41.52 184.658 41.52C190.794 41.52 196.046 37.516 198.542 31.744ZM192.146 12.972C193.134 12.972 193.654 13.908 193.654 15.676C193.654 20.876 190.794 25.14 184.97 26.388C185.698 20.356 189.234 12.972 192.146 12.972Z" fill="#F2F2F2"/>
<path d="M211.161 40.688C207.209 40.688 204.661 35.592 204.089 30.548H203.985C201.437 31.068 199.357 32.784 199.357 35.28C199.357 39.18 204.349 41.52 209.289 41.52C215.529 41.52 221.925 36.736 221.925 31.016C221.925 24.412 210.069 19.888 210.069 15.884C210.069 14.22 211.213 13.284 212.825 13.284C216.309 13.284 218.337 17.392 218.805 21.188H218.909C221.353 20.876 223.589 19.368 223.589 17.028C223.589 13.752 220.157 12.244 215.373 12.244C208.353 12.244 203.101 17.86 203.101 22.852C203.101 29.82 214.125 32.94 214.125 37.672C214.125 39.596 212.825 40.688 211.161 40.688Z" fill="#F2F2F2"/>
</svg>
