<svg width="330" height="42" viewBox="0 0 330 42" fill="none" xmlns="http://www.w3.org/2000/svg">
<path d="M31.295 27.532C33.531 18.38 33.687 17.444 33.687 16.768C33.687 14.012 31.971 12.244 29.111 12.244C23.859 12.244 18.711 17.704 14.655 27.532L18.711 12.244H18.503L3.683 14.792V15L6.491 18.172L0.770996 41H11.379L14.187 30.392C15.487 25.4 19.959 18.692 21.883 18.692C22.507 18.692 22.715 19.056 22.715 19.628C22.715 20.044 22.507 20.772 22.351 21.292L17.411 41H28.019L30.827 30.392C32.127 25.4 36.547 18.692 38.523 18.692C39.147 18.692 39.355 19.056 39.355 19.628C39.355 20.044 39.147 20.772 38.991 21.292L35.039 34.292C34.727 35.332 34.571 36.32 34.571 37.204C34.571 39.7 35.871 41.52 39.303 41.52C44.087 41.52 48.923 37.464 51.107 32.16L50.847 31.9C49.235 34.292 47.571 36.06 46.479 36.06C46.011 36.06 45.751 35.8 45.751 35.28C45.751 34.864 45.907 34.136 46.167 33.2L49.911 19.732C50.275 18.38 50.379 17.444 50.379 16.768C50.379 14.012 48.663 12.244 45.803 12.244C40.499 12.244 35.351 17.652 31.295 27.532Z" fill="#F2F2F2"/>
<path d="M65.1715 10.424C68.8115 10.424 70.9435 7.82399 70.9435 4.85999C70.9435 2.20799 68.9155 0.0239868 65.5875 0.0239868C61.9475 0.0239868 59.8155 2.57199 59.8155 5.53599C59.8155 8.13599 61.8435 10.424 65.1715 10.424ZM52.8475 34.292C52.5875 35.332 52.3795 36.32 52.3795 37.204C52.3795 39.7 53.6795 41.52 57.1115 41.52C61.8955 41.52 66.7315 37.464 68.9155 32.16L68.6555 31.9C67.0435 34.292 65.3795 36.06 64.2875 36.06C63.8195 36.06 63.5595 35.8 63.5595 35.28C63.5595 34.864 63.7155 34.136 63.9755 33.2L69.2795 12.244H69.0715L54.2515 14.792V15L57.0595 18.172L52.8475 34.292Z" fill="#F2F2F2"/>
<path d="M80.958 40.688C77.006 40.688 74.458 35.592 73.886 30.548H73.782C71.234 31.068 69.154 32.784 69.154 35.28C69.154 39.18 74.146 41.52 79.086 41.52C85.326 41.52 91.722 36.736 91.722 31.016C91.722 24.412 79.866 19.888 79.866 15.884C79.866 14.22 81.01 13.284 82.622 13.284C86.106 13.284 88.134 17.392 88.602 21.188H88.706C91.15 20.876 93.386 19.368 93.386 17.028C93.386 13.752 89.954 12.244 85.17 12.244C78.15 12.244 72.898 17.86 72.898 22.852C72.898 29.82 83.922 32.94 83.922 37.672C83.922 39.596 82.622 40.688 80.958 40.688Z" fill="#F2F2F2"/>
<path d="M104.467 40.688C100.515 40.688 97.9674 35.592 97.3954 30.548H97.2914C94.7434 31.068 92.6634 32.784 92.6634 35.28C92.6634 39.18 97.6554 41.52 102.595 41.52C108.835 41.52 115.231 36.736 115.231 31.016C115.231 24.412 103.375 19.888 103.375 15.884C103.375 14.22 104.519 13.284 106.131 13.284C109.615 13.284 111.643 17.392 112.111 21.188H112.215C114.659 20.876 116.895 19.368 116.895 17.028C116.895 13.752 113.463 12.244 108.679 12.244C101.659 12.244 96.4074 17.86 96.4074 22.852C96.4074 29.82 107.431 32.94 107.431 37.672C107.431 39.596 106.131 40.688 104.467 40.688Z" fill="#F2F2F2"/>
<path d="M130.063 10.424C133.703 10.424 135.835 7.82399 135.835 4.85999C135.835 2.20799 133.807 0.0239868 130.479 0.0239868C126.839 0.0239868 124.707 2.57199 124.707 5.53599C124.707 8.13599 126.735 10.424 130.063 10.424ZM117.739 34.292C117.479 35.332 117.271 36.32 117.271 37.204C117.271 39.7 118.571 41.52 122.003 41.52C126.787 41.52 131.623 37.464 133.807 32.16L133.547 31.9C131.935 34.292 130.271 36.06 129.179 36.06C128.711 36.06 128.451 35.8 128.451 35.28C128.451 34.864 128.607 34.136 128.867 33.2L134.171 12.244H133.963L119.143 14.792V15L121.951 18.172L117.739 34.292Z" fill="#F2F2F2"/>
<path d="M153.337 12.244C143.353 12.244 135.709 20.668 135.709 30.08C135.709 37.516 141.065 41.52 147.357 41.52C157.341 41.52 164.985 33.096 164.985 23.684C164.985 16.248 159.629 12.244 153.337 12.244ZM147.305 40.688C146.057 40.688 145.693 38.712 145.693 36.632C145.693 28.52 149.905 13.076 153.389 13.076C154.637 13.076 155.001 15.052 155.001 17.132C155.001 25.244 150.789 40.688 147.305 40.688Z" fill="#F2F2F2"/>
<path d="M183.381 12.244H183.173L168.353 14.792V15L171.161 18.172L165.441 41H176.049L178.857 30.392C180.157 25.4 184.733 18.692 186.761 18.692C187.385 18.692 187.593 19.056 187.593 19.628C187.593 20.044 187.385 20.772 187.229 21.292L183.277 34.292C182.965 35.332 182.809 36.32 182.809 37.204C182.809 39.7 184.109 41.52 187.541 41.52C192.325 41.52 197.161 37.464 199.345 32.16L199.085 31.9C197.473 34.292 195.809 36.06 194.717 36.06C194.249 36.06 193.989 35.8 193.989 35.28C193.989 34.864 194.145 34.136 194.405 33.2L198.149 19.732C198.513 18.38 198.617 17.444 198.617 16.768C198.617 14.012 196.901 12.244 194.041 12.244C188.685 12.244 183.381 17.652 179.325 27.532L183.381 12.244Z" fill="#F2F2F2"/>
<path d="M234.031 32.16L233.771 31.9C232.159 34.292 230.495 36.06 229.403 36.06C228.935 36.06 228.675 35.8 228.675 35.28C228.675 34.864 228.831 34.136 229.039 33.2L232.471 19.472L234.551 12.244H234.343L226.699 15C225.347 13.544 223.267 12.244 220.147 12.244C209.123 12.244 200.647 23.58 200.647 33.356C200.647 38.348 203.299 41.52 207.147 41.52C211.775 41.52 215.935 36.424 219.471 28.26C217.963 33.356 217.495 35.696 217.495 37.204C217.495 39.7 218.795 41.52 222.227 41.52C227.011 41.52 231.847 37.464 234.031 32.16ZM212.763 35.488C211.723 35.488 211.307 34.292 211.307 32.576C211.307 26.024 216.351 13.232 221.447 13.232C222.695 13.232 223.215 14.376 223.163 15.832C220.979 25.348 216.247 35.488 212.763 35.488Z" fill="#F2F2F2"/>
<path d="M248.221 10.424C251.861 10.424 253.993 7.82399 253.993 4.85999C253.993 2.20799 251.965 0.0239868 248.637 0.0239868C244.997 0.0239868 242.865 2.57199 242.865 5.53599C242.865 8.13599 244.893 10.424 248.221 10.424ZM235.897 34.292C235.637 35.332 235.429 36.32 235.429 37.204C235.429 39.7 236.729 41.52 240.161 41.52C244.945 41.52 249.781 37.464 251.965 32.16L251.705 31.9C250.093 34.292 248.429 36.06 247.337 36.06C246.869 36.06 246.609 35.8 246.609 35.28C246.609 34.864 246.765 34.136 247.025 33.2L252.329 12.244H252.121L237.301 14.792V15L240.109 18.172L235.897 34.292Z" fill="#F2F2F2"/>
<path d="M258.548 18.172L252.828 41H263.436C266.14 29.248 268.948 21.552 273.68 21.552C275.552 21.552 276.124 23.008 276.02 24.36H276.124C279.14 23.268 281.792 19.94 281.792 16.56C281.792 13.96 280.284 12.244 277.788 12.244C273.212 12.244 270.196 17.756 265.984 30.236L270.768 12.244H270.56L255.74 14.792V15L258.548 18.172Z" fill="#F2F2F2"/>
<path d="M304.552 31.744L304.24 31.432C302.316 34.344 299.3 35.644 296.544 35.644C293.112 35.644 290.876 33.044 290.876 28.416C290.876 27.948 290.876 27.48 290.928 26.96C299.716 26.284 306.996 23.944 306.996 18.276C306.996 14.896 303.98 12.244 298.884 12.244C288.536 12.244 280.424 21.344 280.424 30.808C280.424 37.36 284.792 41.52 290.668 41.52C296.804 41.52 302.056 37.516 304.552 31.744ZM298.156 12.972C299.144 12.972 299.664 13.908 299.664 15.676C299.664 20.876 296.804 25.14 290.98 26.388C291.708 20.356 295.244 12.972 298.156 12.972Z" fill="#F2F2F2"/>
<path d="M317.171 40.688C313.219 40.688 310.671 35.592 310.099 30.548H309.995C307.447 31.068 305.367 32.784 305.367 35.28C305.367 39.18 310.359 41.52 315.299 41.52C321.539 41.52 327.935 36.736 327.935 31.016C327.935 24.412 316.079 19.888 316.079 15.884C316.079 14.22 317.223 13.284 318.835 13.284C322.319 13.284 324.347 17.392 324.815 21.188H324.919C327.363 20.876 329.599 19.368 329.599 17.028C329.599 13.752 326.167 12.244 321.383 12.244C314.363 12.244 309.111 17.86 309.111 22.852C309.111 29.82 320.135 32.94 320.135 37.672C320.135 39.596 318.835 40.688 317.171 40.688Z" fill="#F2F2F2"/>
</svg>
